<svg xmlns="http://www.w3.org/2000/svg" xmlns:xlink="http://www.w3.org/1999/xlink" width="96" height="96" viewBox="0 0 96 96"><defs><style>.a{fill:none;}.b{fill:#cecece;}.c{clip-path:url(#a);}.d{fill:#474747;}.e{fill:#fff;}.f{clip-path:url(#b);}.g{fill:#3a9947;}</style><clipPath id="a"><circle class="a" cx="48" cy="48" r="48"/></clipPath><clipPath id="b"><path class="a" d="M50.56,74.082,49.234,59.94l-5.7,1.878-5.7-1.878L36.517,74.082a2.618,2.618,0,0,1-2.035,2.309C9.749,81.9,5.2,99.483,5.2,99.483H81.872S77.327,81.9,52.6,76.391A2.618,2.618,0,0,1,50.56,74.082Z" transform="translate(-5.205 -59.94)"/></clipPath></defs><g transform="translate(-263 -947)"><circle class="b" cx="48" cy="48" r="48" transform="translate(263 947)"/><g transform="translate(263 947)"><g class="c"><g transform="translate(4.462 7.279)"><path class="d" d="M44.405,2.81c-21.167,0-23.019,22.428-23.019,29.457,0,5.231-4.355,10.649-6.584,16.6A16.237,16.237,0,0,0,44.484,62.027a16.237,16.237,0,0,0,29.68-13.164c-2.229-5.947-6.584-11.364-6.584-16.6,0-7.03-1.852-29.457-23.019-29.457" transform="translate(-0.867 0)"/><path class="e" d="M50.56,69.639l-1.326-9.7-5.7,1.878-5.7-1.878-1.326,9.7a2.618,2.618,0,0,1-2.035,2.309C9.749,77.459,5.2,95.04,5.2,95.04H81.872S77.327,77.459,52.6,71.948A2.618,2.618,0,0,1,50.56,69.639Z" transform="translate(0 -5.956)"/><g transform="translate(5.205 53.984)"><g class="f"><path class="b" d="M41.52,60.646l13.415,8V55.6L41.52,60.646" transform="translate(-8.991 -59.487)"/></g></g><path class="e" d="M64.933,28.1c0,15.841-8.57,28.683-19.143,28.683S26.646,43.94,26.646,28.1,35.216,5.566,45.79,5.566,64.933,12.257,64.933,28.1Z" transform="translate(-2.235 -0.287)"/><path class="e" d="M27.3,35.132a3.876,3.876,0,1,0,1.974,7.181Z" transform="translate(-1.894 -3.37)"/><path class="e" d="M68.07,35.132A3.876,3.876,0,1,1,66.1,42.313Z" transform="translate(-6.348 -3.37)"/><path class="g" d="M64.439,77.937c-4.025,2.163-11.5,3.619-20.07,3.619-9.132,0-17.03-1.654-20.822-4.057C8.347,84.768,5.2,96.87,5.2,96.87H81.872S78.865,85.244,64.439,77.937Z" transform="translate(0 -7.787)"/><path class="d" d="M26.3,23.109s7.209,3.62,18.767-5.084c8.034-6.05,13.808-5.272,13.808-5.272s1,9.87,6.276,11.212h2.26l-5.775-13.22-12.8-7.281L39.79,5.221,33.011,7.481l-4.833,6.233Z" transform="translate(-2.199 -0.068)"/></g></g></g></g></svg>