<svg xmlns="http://www.w3.org/2000/svg" xmlns:xlink="http://www.w3.org/1999/xlink" width="96" height="96" viewBox="0 0 96 96"><defs><style>.a{fill:none;}.b{fill:#cecece;}.c{clip-path:url(#a);}.d{fill:#fff;}.e{clip-path:url(#b);}.f{fill:#474747;}.g{fill:#3a9947;}</style><clipPath id="a"><circle class="a" cx="48" cy="48" r="48"/></clipPath><clipPath id="b"><path class="a" d="M51.963,75.544,50.6,65.6l-5.839,1.925L38.926,65.6l-1.359,9.944a2.684,2.684,0,0,1-2.087,2.367c-25.356,5.65-30.015,23.674-30.015,23.674h78.6S79.406,83.561,54.051,77.911A2.684,2.684,0,0,1,51.963,75.544Z" transform="translate(-5.464 -65.6)"/></clipPath></defs><g transform="translate(-263 -947)"><circle class="b" cx="48" cy="48" r="48" transform="translate(263 947)"/><g transform="translate(263 947)"><g class="c"><g transform="translate(3.235 5.909)"><path class="d" d="M51.963,75.544,50.6,65.6l-5.839,1.925L38.926,65.6l-1.359,9.944a2.684,2.684,0,0,1-2.087,2.367c-25.356,5.65-30.015,23.674-30.015,23.674h78.6S79.406,83.561,54.051,77.911A2.684,2.684,0,0,1,51.963,75.544Z" transform="translate(0 -4.855)"/><g transform="translate(5.464 60.745)"><g class="e"><path class="b" d="M41.559,66.459l13.753,8.207V61.282L41.559,66.459" transform="translate(-8.209 -65.272)"/></g></g><path class="f" d="M65.371,39.51s4.475-7.379,4.475-14.414c0-12.011-8.064-11.669-8.064-11.669S55.26,1.758,41.017,1.758c-19.39,0-13.555,13.728-13.555,13.728-9.829,2.852-.987,24.024-.987,24.024" transform="translate(-1.32 0)"/><path class="d" d="M66.028,34.656c0,16.241-8.787,29.406-19.626,29.406S26.776,50.9,26.776,34.656s8.787-23.1,19.626-23.1S66.028,18.415,66.028,34.656Z" transform="translate(-1.621 -0.745)"/><path class="f" d="M27.735,38.507a26.2,26.2,0,0,1,4.086-19.9s11.2-7.146,29.158.576c0,0,6.935,5.423,3.989,19.326l1,1.548s6.639-17.787-1.426-23.622S40.673,5.864,33.637,11.355s-8.9,18.285-6.9,27.268Z" transform="translate(-1.56 -0.545)"/><path class="f" d="M64.265,19.061c-5.79-9.31-3.431,0-3.431,0s6.93,7.9,2.993,23.876c-2.135,7.483-4.709,8.255-5.61,8.255s-8.342-3.08-11.888-3.089h-.016c-3.545.009-10.988,3.089-11.888,3.089s-3.475-.772-5.61-8.255c-3.936-15.978,2.994-23.876,2.994-23.876s2.359-9.31-3.432,0,.033,27.85.033,27.85C30.581,66.2,46.147,64.341,46.321,64.32c.173.021,15.738,1.878,17.912-17.409C64.232,46.911,70.056,28.37,64.265,19.061Z" transform="translate(-1.547 -1.001)"/><path class="d" d="M26.139,40.942A3.973,3.973,0,0,0,22.18,44.2,4.025,4.025,0,0,0,25,48.738a3.953,3.953,0,0,0,2.395-.071.892.892,0,0,0,.569-1.077Z" transform="translate(-1.266 -2.98)"/><path class="d" d="M69.433,40.942A3.973,3.973,0,0,1,73.392,44.2a4.025,4.025,0,0,1-2.824,4.542,3.946,3.946,0,0,1-2.348-.055.94.94,0,0,1-.6-1.141Z" transform="translate(-4.724 -2.98)"/><path class="g" d="M66.194,83.5c-4.127,2.219-11.794,3.711-20.576,3.711-9.363,0-17.46-1.695-21.349-4.159C8.686,90.5,5.464,102.912,5.464,102.912h78.6S80.983,90.991,66.194,83.5Z" transform="translate(0 -6.183)"/></g></g></g></g></svg>