<svg xmlns="http://www.w3.org/2000/svg" width="779.62" height="448.58" viewBox="0 0 779.62 448.58"><defs><style>.a{opacity:0.05;}.b{fill:#8e8e8e;}.c{fill:#9e9e9e;}.d{fill:#a8a8a8;}.e{fill:#bababa;}.f{fill:#b5b5b5;}.g{fill:#cecece;}.h{fill:#bfbfbf;}.i{fill:#3da54f;}.j{fill:#474747;}.k{fill:#44b758;}.l{fill:#555;}.m{fill:#fff;}.n{fill:#ea9b78;}.o{fill:#ffae82;}.p{fill:#ededed;}.q{fill:#ed9b7c;}.r{fill:#424242;}.s{fill:#7f7f7f;}.t{fill:#fafafa;}.u{fill:#efefef;}</style></defs><g transform="translate(0.02)"><path class="a" d="M27.8,447S-85.6,209.1,145.5,128.7l22.4-5.5,58.5,9.1A84.332,84.332,0,0,0,303.2,104C339.2,62.4,409.6,0,508.9,0,640.2,0,702,58.5,702,143.9c0,79.7-87.8,101.4-7.1,162.3,0,0,84.7,29.3,84.7,140.8Z"/><rect class="b" width="83.3" height="78.6" transform="translate(597.4 271.9)"/><rect class="c" width="83.3" height="78.6" transform="translate(639 271.9)"/><rect class="b" width="88.1" height="98.1" transform="translate(759.84 448.58) rotate(180)"/><rect class="c" width="106" height="98.1" transform="translate(736.033 448.58) rotate(180)"/><rect class="b" width="69.7" height="162.7" transform="translate(62.7 217.8)"/><rect class="b" width="65.4" height="71" transform="translate(34.9 375.8)"/><rect class="c" width="78.7" height="71" transform="translate(52.5 375.8)"/><path class="d" d="M232,238.9a21.1,21.1,0,0,0-42.2,0h0v68.9H107.7V447H232V238.9Z"/><path class="e" d="M144,344.1a36.334,36.334,0,0,0-72.6-2.2h0c0,.7-.1,1.5-.1,2.2a16.2,16.2,0,0,0,.1,2.2V447h44.2V379.6A36.271,36.271,0,0,0,144,344.1Z"/><rect class="f" width="386.5" height="69.6" transform="translate(180.2 377.4)"/><rect class="g" width="354.2" height="132.7" transform="translate(212.4 217.8)"/><path class="h" d="M551.6,385.1H180.2A15.087,15.087,0,0,1,165.1,370v-8.1a15.087,15.087,0,0,1,15.1-15.1H551.6a15.087,15.087,0,0,1,15.1,15.1V370A15.151,15.151,0,0,1,551.6,385.1Z"/><path class="h" d="M351.3,346.9h-3V240.4a22.577,22.577,0,0,1,22.6-22.6v3a19.632,19.632,0,0,0-19.6,19.6Z"/><path class="d" d="M585.7,238.9a21.1,21.1,0,1,0-42.2,0h0v68.9H461.4V447H585.7V238.9Z"/><path class="e" d="M497.7,344.1a36.334,36.334,0,0,0-72.6-2.2h0c0,.7-.1,1.5-.1,2.2a16.2,16.2,0,0,0,.1,2.2V447h44.2V379.6A36.271,36.271,0,0,0,497.7,344.1Z"/><path class="i" d="M153.7,257.9s9,59.6,1.3,94.2c-1.8,7.6,8.4,80.2,8.4,80.2s11.1,10.5,18.2,11.1c0,0,2.1,1.8,2.1,3.7H152.6l1.8-12.9s-21.4-41.9-23.7-73.1c-2.4-31.1-4.2-30.1-4.2-30.1l13.7-73.5Z"/><path class="j" d="M163.5,432.3s11.1,10.5,18.2,11.1c0,0,2.1,1.8,2.1,3.7H152.7l1.8-12.9"/><path class="k" d="M102.1,431.7s11.1-57.8,17.4-68c6.3-10.3,25.6-82.8,26.1-105.2l-43.5-8.2s-12.2,22.2-3.8,90.9a63.912,63.912,0,0,1-2.1,24.2c-4.2,15.8-10,45.3-3,68.5L89.8,447"/><path class="c" d="M145.6,258.5"/><path class="l" d="M93.1,433.8,89.8,447h33.3s1.4-5.9-6.3-6.1c-5.1-.1-14.8-9.2-14.8-9.2"/><path class="m" d="M102.1,250.3s31.6,9.2,51.7,7.6c0,0,6.6-33,9.8-38.2a44.6,44.6,0,0,0,4.5-10s7.6,21.6,18.7,25.6c0,0,6.5-15.7,5.5-17.1-9.5-13.5-13.5-43.8-30.3-47.7,0,0-2.4-4,.8-12.7l-12.7-11.6s-5.5,18.2-8.7,17.9c-5.5-.5-24-4.5-25.3,12.4s4.5,30.6-.8,41.1S102.1,241.3,102.1,250.3Z"/><path class="n" d="M178.1,187.1c4.8,10.3,9,23.7,14.1,31,.9,1.4-5.5,17.1-5.5,17.1-11.1-4-18.7-25.6-18.7-25.6s6.2-11.2,5-16.2c-.5-3.8,1.6-5.6,2.8-5.6Z"/><circle class="i" cx="26.8" cy="26.8" r="26.8" transform="translate(185.6 203.3)"/><path class="i" d="M208,263.2l-25.2-16.7a3.825,3.825,0,0,1-1.1-5.2h0a3.825,3.825,0,0,1,5.2-1.1l25.2,16.7a3.825,3.825,0,0,1,1.1,5.2h0A3.805,3.805,0,0,1,208,263.2Z"/><path class="m" d="M188.4,191l68.7,47.4a2.8,2.8,0,0,0,4.1-1.1L283.8,187a2.81,2.81,0,0,0-.9-3.4l-51.2-36.2a2.611,2.611,0,0,0-3.5.3l-40,39A2.723,2.723,0,0,0,188.4,191Z"/><path class="n" d="M139.7,179.1l23,8.1a1.588,1.588,0,0,0,2.1-1.4c.3-4.4.8-14.2-.1-14.6-2.6-.9-2.9-1.5-2.9-1.6h0c-.5-1.5-1.3-5.3,1.1-11.9l-12.7-11.6s-5.5,18.2-8.7,17.9c-1.1-.1-2.7-.3-4.6-.5l.8,12.8A2.793,2.793,0,0,0,139.7,179.1Z"/><path class="o" d="M115.7,181.4s6.4-8.1,15.9-4.7l13.7,37.1a33.465,33.465,0,0,0,13.9,16.9l24.7,15.1s16.9-2.9,22.2,2.9-6.9,7.4-10,7.4c-3.2,0-50.6-11.6-55.1-15.8C136.3,236,115.4,203.5,115.7,181.4Z"/><path class="l" d="M149.9,138.8s8.2,1.5,10.9-1.1c0,0-2.5,3.8-5.3,5.1,0,0,13.1-4.4,16.7-14.2,0,0,4.7,2.2,3.8,16.4,0,0,6.9-11.1,2.6-16.9-4.2-5.8-12.9-20-23.6-17.7,0,0-2-9.2-10.9-9.2S131.7,118.6,142,122c0,0-11.1,22.7,4.8,22.9C148.2,144.1,149.5,142.3,149.9,138.8Z"/><path class="o" d="M172.3,128.7c-3.7,9.9-16.7,14.2-16.7,14.2,2.8-1.3,5.3-5.1,5.3-5.1-2.8,2.5-10.9,1.1-10.9,1.1-.5,3.4-1.8,5.2-3,6.2h.2s8.4,14,18.2,14,10.8-14,10.8-14C177.1,130.9,172.3,128.7,172.3,128.7Z"/><path class="i" d="M562.6,256.9s6.8,158,11.5,175.4c0,0-1.6,5.8-9.5,7.4s-11.6,5.3-10.5,7.4l33.8-.4V432.3s19.5-45.4,16.9-97.6-25.3-85.5-25.3-85.5Z"/><path class="k" d="M569.7,258.2s23.8,67,37.3,87.6,40,65.3,41.9,76c2,10.7-4,20.2-6.7,20.6l-.8,4.4h13.1l14.2-18.6s2.4-5.5-6.7-9.5c0,0-2.8-64.9-24.5-98.1s-16.4-73.3-16.4-73.3Z"/><path class="m" d="M648.9,421.7c2,10.7-4,20.2-6.7,20.6l-.8,4.4h13.1l14.2-18.6s2.4-5.5-6.7-9.5"/><path class="p" d="M574.1,432.3s-1.6,5.8-9.5,7.4-11.6,5.3-10.5,7.4l33.8-.4V432.3"/><path class="l" d="M582.1,132.1s-19.5,11.1-19.5,38.5-6.9,76.5-3.2,85.5c0,0,40.6,11.6,61.7-9,0,0,1.3-17.9,0-56.4-1.1-30.3-1.6-53.8-15.8-64.4-4.9-3.8-5.5-10.2-5.5-10.2l-16,2.2C583.8,118.4,584.8,129.1,582.1,132.1Z"/><path class="j" d="M592.6,168.8l-32.4,42.7c-.4,5.2-.8,10.3-1.1,15.1,18.6,7.6,46.4,13.1,62.2,15.9.3-7.5.7-24.5-.2-51.8-.4-11.5-.7-22-1.8-31.3Z"/><rect class="b" width="63.6" height="63.6" transform="translate(522.1 173.8)"/><rect class="c" width="63.6" height="63.6" transform="translate(494.5 173.8)"/><path class="b" d="M548,186.3H484.5l10-12.5H558Z"/><path class="o" d="M545.1,207.2s-1.6-10.2-11.3-7.6-4.4,9.2,6.8,13.6"/><path class="l" d="M619.3,159.4s1.2,58.9-18.3,59.5c-17.6.5-53.1-3.8-60-4.6a.73.73,0,0,1-.5-1.1l4.2-5.7c.1-.1.3-.2.4-.3L586,199a7.375,7.375,0,0,0,5.9-7.1l.6-23.1"/><path class="o" d="M602.4,104.3c.2-.5.4-1,.6-1.6C602.8,103.3,602.6,103.8,602.4,104.3Z"/><path class="o" d="M602.3,104.5C596.3,81.4,573,82,573,82c-3.9,1-4.9,29.5,0,36.4s26.6-2.1,26.6-2.1C598.9,113.9,600.4,109.8,602.3,104.5Z"/><path class="c" d="M564.4,65.9C559.8,80,573,82,573,82s23.4-.6,29.4,22.5c2.4-6.4,5.5-14.7,6.7-24.1C611.4,63,564.4,65.9,564.4,65.9Z"/><path class="o" d="M416.7,374s-.5,26.4,0,37.5,0,25.1,0,25.1-5.5,5.3-9.2,5.5-6.6,2.9-6.1,4.6h25.8s0-5.1-1.8-7c-1.8-1.8,5.5-19.9,5.5-29.3s-1.6-31.1,0-36.3H416.7Z"/><path class="k" d="M416.7,436.5s-5.5,5.3-9.2,5.5-6.6,2.9-6.1,4.6h25.8s0-5.1-1.8-7"/><path class="q" d="M446.2,372.4s4.7,21,3.2,37.9c-1.6,16.9-1.3,25.9-1.4,27.5-.2,1.6,1.7,9.2,1.7,9.2l-22.5-.4,1.1-4.4s9,0,10.2-4.5-1-29.5-3.3-38.2c-2.4-8.7-6.3-21.4-6.6-25.6S446.2,372.4,446.2,372.4Z"/><path class="i" d="M448,437.8c-.2,1.6,1.7,9.2,1.7,9.2l-22.5-.4,1.1-4.4s9,0,10.2-4.5"/><path class="n" d="M430.9,274.8s-5.8-2.2-12.6-10.8c-6.7-8.6-18.3-14.8-18.3-14.8l-3.1,3s8.2,6.7,12.4,16a42.109,42.109,0,0,0,11.5,14.7"/><path class="k" d="M398.7,256.6c1.2-9.5,19.4-21.6,26.3-25.8,1.4-.9,1.9-2.5,1.2-3.5l-1.9-2.5-1.9-2.5c-.7-1-2.5-1-3.7.1-6.1,5.3-23.1,18.9-32.5,17.3-11.6-2.1-22.6,9.4-24,14.2h0c-1.7-.1-3.1,1.8-2.3,3l7.2,9.9,7.2,9.9c.9,1.2,3.1.4,3.5-1.2h0C382.9,275.3,397.2,268.3,398.7,256.6Z"/><path class="m" d="M415.1,336.8l2-33.4a14.923,14.923,0,0,0-6.8-13.4c-8.6-5.5-22.3-14.9-26.9-21.5-6.3-9.2-6.7-16.3-10.2-16.8s-6.4-4.3,0-4.6c13.1,0,12.1,11.6,21.4,19.1s12.5,11.6,21.4,11.2c6.6,0,8.9-1,11.1-1,1.3,0,1.8-3,1.4-5-.2-1.2.4-1.4,1.3-.7,2.2,1.7,6.4,1.5,9.7,1.2a4.2,4.2,0,0,1,4.3,3.2l.6,2.3s9.5,1.9,10,13.1,2.5,38.9-2,47.4C448,346.3,414.3,350.6,415.1,336.8Z"/><path class="o" d="M428.2,270.4a10.858,10.858,0,0,1-.1,5.4c9.7,3.1,14.5,1.7,16.2.9l-1-4.2-.4-.8c-1,.1-1.9.2-2.8.2a13.094,13.094,0,0,1-2.8,0,15.9,15.9,0,0,1-6.1-1.3,29.631,29.631,0,0,1-3-1.1Z"/><path class="p" d="M425.6,340.6c4.5-14,1.6-42.4,1.6-42.4-4.8-.6-13.7-5.4-13.7-5.4v.1a14.7,14.7,0,0,1,3.6,10.7l-2,33.4c-.3,4.3,2.9,6.9,7.5,8.1A8.358,8.358,0,0,0,425.6,340.6Z"/><path class="o" d="M418,277.4h-1.9c-9,.4-12.2-3.6-21.4-11.2-9.3-7.5-8.3-19.1-21.4-19.1-6.4.4-3.5,4.1,0,4.6s3.8,7.6,10.2,16.8c4.6,6.6,18.3,16,26.9,21.5a12.989,12.989,0,0,1,3.1,2.6h.1S419.9,279,418,277.4Z"/><path class="o" d="M433.1,244.1s-13.1,15.6-9.5,20,9.9,10.5,20.7,6.7,18.5-15.3,16.9-21.6c-3-11.9-20.8-5.9-22.4-16.2C438.8,233,430.4,237.9,433.1,244.1Z"/><path class="l" d="M438.8,233s-8.4,4.9-5.6,11.1c0,0-.6,6.3,6.7,10.3,0,0-5.5,13.1,4.5,15.5.5.1.9.2,1.4.3,10-4.2,17-15,15.5-21C458.2,237.4,440.4,243.3,438.8,233Z"/><path class="l" d="M415.1,336.8s-4.8,26.7-2.9,36.8a1.616,1.616,0,0,0,1.7,1.3l17-1s12.5-2.4,15.6-2.4,11.9-10,5.9-33.7C452.5,337.8,433.9,342.4,415.1,336.8Z"/><path class="r" d="M413.9,344.1c-1.3,8.6-3,22.8-1.7,29.5a1.616,1.616,0,0,0,1.7,1.3l14.3-.8.4-.2c0,.1-7.8-18-14.7-29.8Z"/><path class="s" d="M188.8,447l3.3-7.2h70.2l-3.2,7.2h4.3l31.2-68.8-3.7-1.6-26.8,59.2H193.9l26-57.6-3.6-1.6L184.4,447Z"/><path class="s" d="M366.2,447l-3.3-7.2h70.2l3.3,7.2h4.4l-31.9-70.4-3.6,1.6,26,57.6H361.1l-26.8-59.2-3.6,1.6L361.8,447Z"/><path class="j" d="M419.1,380H204.4a4.225,4.225,0,0,1-4.2-4.2h0a4.225,4.225,0,0,1,4.2-4.2H419.1a4.225,4.225,0,0,1,4.2,4.2h0A4.225,4.225,0,0,1,419.1,380Z"/><rect class="t" width="82.3" height="75.1" transform="translate(260.3 296.4)"/><path class="t" d="M362.6,321.5H280.3l-20-25.1h82.3Z"/><rect class="u" width="42.3" height="75.1" transform="translate(260.309 371.592) rotate(180)"/><path class="u" d="M198,321.5h42.3l20-25.1H218Z"/><rect class="b" width="13.8" height="52.7" transform="translate(359.6 394.3)"/><rect class="c" width="58.2" height="52.7" transform="translate(359.653 446.997) rotate(180)"/></g></svg>