<svg xmlns="http://www.w3.org/2000/svg" xmlns:xlink="http://www.w3.org/1999/xlink" width="737.179" height="522.798" viewBox="0 0 737.179 522.798"><defs><style>.a,.l,.q{fill:none;}.b,.g{opacity:0.05;}.b,.o{isolation:isolate;}.c{fill:#3a9947;}.d{fill:#44b758;}.e{clip-path:url(#a);}.f,.o{fill:#fff;}.h{clip-path:url(#b);}.i{fill:#020202;}.j{fill:#555;}.k{fill:#cecece;}.l{stroke:#cecece;stroke-width:4px;}.l,.q{stroke-linecap:round;stroke-miterlimit:10;}.m{fill:#474747;}.n{fill:#333;}.o,.p{opacity:0.5;}.q{stroke:#fff;stroke-width:2px;}.r{opacity:0.3;}</style><clipPath id="a"><path class="a" d="M2374.51,341.11l315.09,171.1a4.861,4.861,0,0,0,4.9-.15l207.05-129a4.87,4.87,0,0,0-.2-8.38L2581,195.59,2374.15,332.78a4.859,4.859,0,0,0,.36,8.33Z"/></clipPath><clipPath id="b"><path class="a" d="M2377.82,326.96l293.86,159.57,193.05-120.3L2567.61,200.14Z"/></clipPath></defs><g transform="translate(-2598.27 -194.969)"><path class="b" d="M487.051,309.242c53.648-22.89,102.4-104,201.7-104,131.3,0,193.1,49.108,193.1,143.9,0,79.7-87.8,101.4-7.1,162.3,0,0,57.3,20.553,65.523,59.583,8.6,40.788-6.576,81.217-48.259,81.217H318.189A111.777,111.777,0,0,1,206.964,550.948c-7.119-74.839,7.909-152.413,93.975-194.182C381.285,315.711,421.049,355.333,487.051,309.242Z" transform="translate(2392.86 27.626)"/><g transform="translate(226.305 194.969)"><path class="c" d="M2904.12,389.41a5.07,5.07,0,0,0,0-1.29l-.31-10-13.1.4L2583.9,207.06a4.849,4.849,0,0,0-5.06.19l-194.56,129-12.31.38.31,10.13h0a4.819,4.819,0,0,0,2.53,4.34L2689.9,522.21a4.859,4.859,0,0,0,4.89-.15l207.05-129a4.77,4.77,0,0,0,2.2-3.2h.08Z"/><path class="d" d="M2374.51,341.11l315.09,171.1a4.861,4.861,0,0,0,4.9-.15l207.05-129a4.87,4.87,0,0,0-.2-8.38L2590.16,193.06a5.93,5.93,0,0,0-6.27.19L2374.15,332.78a4.859,4.859,0,0,0,.36,8.33Z"/><g class="e"><path class="f" d="M2377.82,326.96l302.56,164.29a3.849,3.849,0,0,0,4-.21l187.39-115.41a3.2,3.2,0,0,0-.12-5.53l-304-170Z"/><g class="g"><g class="h"><path class="i" d="M2525.64,433.01l-.3-10,206.17-143.29-3.67-119.46-392.92,12.07,8.55,278.37Z"/><path class="f" d="M2238.19,229.66l293.86,159.57,188.06-131.68L2427.98,102.84Z"/></g></g></g><path class="f" d="M2698.01,273.06s-1.66-11.65-121.53-74.44l-178,118.08s36,10,127.07,68.34a11.6,11.6,0,0,0,12.92-.25Z"/><path class="j" d="M2538.38,384.06a2.11,2.11,0,0,0,.71-2.48c-1.63-4.08-1.64-7.91.38-10.31a7.69,7.69,0,0,1,5.88-2.46c4.62-.15,10.62,2.23,15.76,6.69a27.513,27.513,0,0,1,8.33,11.87c1.23,3.81.94,7.07-.82,9.16-.15.17-.3.33-.46.48a2.12,2.12,0,0,0-.32,2.83h0a2,2,0,0,0,3,.28,8.507,8.507,0,0,0,.88-.92c2.72-3.23,3.28-7.88,1.59-13.1a31.64,31.64,0,0,0-9.54-13.72c-9.9-8.58-21.91-10.24-27.35-3.78-3.07,3.65-3.27,9-1.1,14.51a2.059,2.059,0,0,0,2.641,1.229,2.02,2.02,0,0,0,.449-.229Z"/><path class="j" d="M2574.16,358.63a2.09,2.09,0,0,0,.71-2.47c-1.62-4.09-1.64-7.91.38-10.32a7.76,7.76,0,0,1,5.88-2.46c4.62-.14,10.62,2.24,15.76,6.7a27.461,27.461,0,0,1,8.33,11.87c1.23,3.81.94,7.06-.82,9.16-.15.17-.3.33-.46.48a2.12,2.12,0,0,0-.32,2.83h0a2,2,0,0,0,3,.28,9.787,9.787,0,0,0,.88-.93c2.72-3.22,3.28-7.87,1.6-13.1a31.777,31.777,0,0,0-9.55-13.71c-9.9-8.58-21.91-10.24-27.35-3.78-3.07,3.65-3.27,9-1.09,14.5a2,2,0,0,0,3.08,1Z"/><path class="j" d="M2609.94,333.23a2.089,2.089,0,0,0,.71-2.48c-1.62-4.08-1.64-7.91.38-10.31a7.7,7.7,0,0,1,5.89-2.46c4.61-.14,10.61,2.23,15.75,6.69a27.505,27.505,0,0,1,8.33,11.87c1.24,3.81.94,7.07-.82,9.16-.15.17-.3.33-.46.49a2.11,2.11,0,0,0-.32,2.82h0a2,2,0,0,0,3,.28,9.783,9.783,0,0,0,.89-.92c2.71-3.23,3.28-7.88,1.59-13.1a31.744,31.744,0,0,0-9.55-13.72c-9.9-8.58-21.91-10.24-27.34-3.78-3.08,3.65-3.28,9-1.1,14.51a2,2,0,0,0,2.545,1.232,1.974,1.974,0,0,0,.535-.282Z"/><path class="j" d="M2645.72,307.82a2.07,2.07,0,0,0,.71-2.47c-1.62-4.08-1.64-7.91.38-10.32a7.771,7.771,0,0,1,5.89-2.46c4.61-.14,10.61,2.24,15.76,6.7a27.526,27.526,0,0,1,8.32,11.87c1.24,3.81.94,7.06-.82,9.16a5.21,5.21,0,0,1-.46.48,2.109,2.109,0,0,0-.31,2.83h0a2,2,0,0,0,2.792.453,2.133,2.133,0,0,0,.208-.173,11.351,11.351,0,0,0,.89-.93c2.709-3.22,3.28-7.87,1.59-13.1a31.774,31.774,0,0,0-9.55-13.71c-9.9-8.58-21.91-10.24-27.341-3.78-3.07,3.65-3.28,9-1.1,14.5a2,2,0,0,0,2.546,1.232,1.954,1.954,0,0,0,.534-.282Z"/><path class="j" d="M2681.5,282.42a2.091,2.091,0,0,0,.71-2.48c-1.62-4.08-1.64-7.9.39-10.31a7.681,7.681,0,0,1,5.88-2.46c4.61-.14,10.61,2.23,15.76,6.69a27.577,27.577,0,0,1,8.32,11.87c1.24,3.82.94,7.07-.82,9.16-.14.17-.3.33-.46.49a2.11,2.11,0,0,0-.31,2.82h0a2,2,0,0,0,2.79.463,2.046,2.046,0,0,0,.21-.173,9.921,9.921,0,0,0,.89-.93c2.71-3.22,3.28-7.88,1.59-13.1a31.744,31.744,0,0,0-9.55-13.72c-9.9-8.57-21.91-10.24-27.34-3.78-3.071,3.65-3.281,9-1.1,14.51A2,2,0,0,0,2681,282.7a1.954,1.954,0,0,0,.534-.282Z"/><path class="k" d="M2724.24,324.93l-9-5.17a1.919,1.919,0,0,1-.719-2.618,1.9,1.9,0,0,1,.459-.542l9.55-7.72a1.921,1.921,0,0,1,2.16-.18l9,5.17a1.921,1.921,0,0,1,.26,3.16l-9.54,7.72A1.939,1.939,0,0,1,2724.24,324.93Z"/><line class="l" x2="84.99" y2="49.79" transform="translate(2741.17 321.65)"/><line class="l" x2="57.78" y2="33.39" transform="translate(2733.57 328.15)"/><path class="k" d="M2689.91,348.17l-9-5.16a1.92,1.92,0,0,1-.71-2.621,1.941,1.941,0,0,1,.46-.539l9.54-7.72a1.921,1.921,0,0,1,2.16-.18l9,5.17a1.92,1.92,0,0,1,.25,3.16l-9.54,7.72A1.9,1.9,0,0,1,2689.91,348.17Z"/><line class="l" x2="85" y2="49.79" transform="translate(2706.83 344.9)"/><line class="l" x2="57.78" y2="33.39" transform="translate(2699.23 351.4)"/><path class="k" d="M2655.57,371.42l-9-5.16a1.92,1.92,0,0,1-.25-3.16l9.54-7.72a1.921,1.921,0,0,1,2.16-.18l9,5.17a1.92,1.92,0,0,1,.25,3.16l-9.54,7.72A1.9,1.9,0,0,1,2655.57,371.42Z"/><line class="l" x2="84.99" y2="49.79" transform="translate(2672.5 368.15)"/><line class="l" x2="57.78" y2="33.39" transform="translate(2664.9 374.65)"/><path class="k" d="M2621.23,394.67l-9-5.16a1.919,1.919,0,0,1-.719-2.618,1.9,1.9,0,0,1,.459-.542l9.54-7.73a2,2,0,0,1,2.17-.17l9,5.17a1.921,1.921,0,0,1,.26,3.16l-9.54,7.72A1.92,1.92,0,0,1,2621.23,394.67Z"/><line class="l" x2="84.99" y2="49.79" transform="translate(2638.16 391.4)"/><line class="l" x2="57.78" y2="33.39" transform="translate(2630.56 397.9)"/><path class="k" d="M2586.9,417.92l-9-5.17a1.91,1.91,0,0,1-.25-3.15l9.54-7.73a1.941,1.941,0,0,1,2.16-.17l9,5.17a1.92,1.92,0,0,1,.25,3.16l-9.54,7.72A1.9,1.9,0,0,1,2586.9,417.92Z"/><line class="l" x2="85" y2="49.79" transform="translate(2603.82 414.65)"/><line class="l" x2="57.78" y2="33.39" transform="translate(2596.22 421.15)"/><path class="k" d="M2650.068,261.67l-71.431-41.679a3.28,3.28,0,0,0-3.378.044l-14.928,9.238a3.28,3.28,0,0,0,.073,5.621l71.431,41.679a3.282,3.282,0,0,0,3.379-.044l14.927-9.238A3.279,3.279,0,0,0,2650.068,261.67Z"/><path class="k" d="M2611.45,287.84l-71.839-40.954a3.278,3.278,0,0,0-3.378.078L2521.4,256.35a3.279,3.279,0,0,0,.129,5.619l71.839,40.955a3.283,3.283,0,0,0,3.378-.078l14.832-9.386A3.28,3.28,0,0,0,2611.45,287.84Z"/><path class="k" d="M2572.831,314.01l-72.246-40.23a3.279,3.279,0,0,0-3.377.112l-14.737,9.534a3.279,3.279,0,0,0,.186,5.618l72.247,40.231a3.278,3.278,0,0,0,3.376-.112l14.737-9.535A3.279,3.279,0,0,0,2572.831,314.01Z"/><path class="k" d="M2534.213,340.181l-72.655-39.507a3.282,3.282,0,0,0-3.376.146L2443.54,310.5a3.279,3.279,0,0,0,.243,5.616l72.655,39.507a3.28,3.28,0,0,0,3.375-.146l14.643-9.683A3.279,3.279,0,0,0,2534.213,340.181Z"/><path class="m" d="M2818.32,376.89a6.52,6.52,0,0,0-8.12-3.93l-135.93,42.3-10.29,8a1.81,1.81,0,0,0,1,3.23l13,.86,136.19-42.37a6.351,6.351,0,0,0,4.2-7.938C2818.353,376.991,2818.337,376.94,2818.32,376.89Z"/><path class="c" d="M2955.52,241.19l90.39,60.98-45.87-155.11Z"/><path class="d" d="M2686.05,209.98l251.93,142.07,62.06-204.99L2750.33,0Z"/><path class="f" d="M2706.88,200.28l221.91,122.25,49.47-163.36L2758.12,32.93Z"/><path class="m" d="M2782.53,54.06h0a2.5,2.5,0,0,0,.79-3.4,16.294,16.294,0,0,1-1.67-4,27.08,27.08,0,0,1,10.72-27.84,14.3,14.3,0,0,1,7.66-2.47,10.268,10.268,0,0,1,3.73.68c3.46,1.33,6,4.52,7.24,9a23.593,23.593,0,0,1,.34,10l4.56,2.69a28.911,28.911,0,0,0-.08-14c-1.63-6-5.27-10.41-10.26-12.33s-10.64-1.12-15.89,2.26A32,32,0,0,0,2776.83,48a21.919,21.919,0,0,0,2.19,5.3,2.51,2.51,0,0,0,3.46.792Z"/><path class="m" d="M2821.85,77.17h0a2.5,2.5,0,0,0,.78-3.4,16.391,16.391,0,0,1-1.66-4,27,27,0,0,1,10.72-27.84,14.269,14.269,0,0,1,7.66-2.48,10.173,10.173,0,0,1,3.72.68c3.47,1.33,6,4.52,7.24,9a23.429,23.429,0,0,1,.34,10l4.57,2.69a29.192,29.192,0,0,0-.08-14c-1.63-6-5.28-10.4-10.27-12.33s-10.63-1.12-15.89,2.26a32,32,0,0,0-12.84,33.31,21.577,21.577,0,0,0,2.2,5.3,2.5,2.5,0,0,0,3.429.86C2821.8,77.2,2821.823,77.187,2821.85,77.17Z"/><path class="m" d="M2861.16,100.34h0a2.529,2.529,0,0,0,.79-3.41,16.032,16.032,0,0,1-1.67-4A27.081,27.081,0,0,1,2871,65.06a14.286,14.286,0,0,1,7.66-2.48,10.494,10.494,0,0,1,3.73.68c3.46,1.34,6,4.52,7.23,9a23.274,23.274,0,0,1,.34,10l4.57,2.69a29.07,29.07,0,0,0-.08-14c-1.63-6-5.28-10.4-10.27-12.32s-10.63-1.13-15.88,2.25a32,32,0,0,0-12.85,33.35,21.4,21.4,0,0,0,2.2,5.3,2.51,2.51,0,0,0,3.446.85Z"/><path class="m" d="M2900.47,123.5h0a2.519,2.519,0,0,0,.79-3.41,16.227,16.227,0,0,1-1.67-4,27.08,27.08,0,0,1,10.72-27.84,14.322,14.322,0,0,1,7.66-2.48,10.5,10.5,0,0,1,3.73.68c3.46,1.34,6,4.52,7.24,9a23.589,23.589,0,0,1,.34,10l4.56,2.69a28.911,28.911,0,0,0-.08-14c-1.63-6-5.27-10.41-10.26-12.33s-10.64-1.12-15.89,2.26a32,32,0,0,0-12.84,33.35,21.09,21.09,0,0,0,2.19,5.29,2.51,2.51,0,0,0,3.452.827Z"/><path class="m" d="M2939.79,146.66h0a2.5,2.5,0,0,0,.78-3.4,16.072,16.072,0,0,1-1.66-4,27,27,0,0,1,10.72-27.84,14.251,14.251,0,0,1,7.66-2.47,10.219,10.219,0,0,1,3.72.68c3.47,1.33,6,4.52,7.24,9a23.433,23.433,0,0,1,.34,10l4.57,2.69a29.158,29.158,0,0,0-.08-14c-1.63-6-5.28-10.41-10.27-12.33s-10.63-1.12-15.89,2.26a32,32,0,0,0-12.85,33.29,21.566,21.566,0,0,0,2.2,5.3,2.511,2.511,0,0,0,3.442.869Z"/><path class="n" d="M3082.81,405.85l-10.07.31.09,2.73-60.71-31.16a11.909,11.909,0,0,0-11.66.43l-117,71.36-.06-2.06-10.07.31.36,11.65h0a6.531,6.531,0,0,0,3.58,5.65l68.59,35.21a6.611,6.611,0,0,0,6.46-.24l128.34-78.3a5.11,5.11,0,0,0,2.43-5h0Z"/><path class="m" d="M2945.55,489.06l-68.59-35.21a6.61,6.61,0,0,1-.42-11.52l123.53-75.36a12,12,0,0,1,11.67-.43l68.24,35a5.161,5.161,0,0,1,.33,9l-128.34,78.3A6.611,6.611,0,0,1,2945.55,489.06Z"/><path class="f" d="M2956.93,475.25l-61.45-32.09a1.84,1.84,0,0,1-.1-3.2l99.77-60.34a1.83,1.83,0,0,1,1.81-.06l61.44,32.09a1.829,1.829,0,0,1,.1,3.2l-99.76,60.35A1.85,1.85,0,0,1,2956.93,475.25Z"/><path class="d" d="M3024.97,424.13l-48.81-25.29a1.42,1.42,0,0,1-.06-2.49l15.39-9a7.741,7.741,0,0,1,7.45-.18l48.1,24.92a1.55,1.55,0,0,1,.07,2.71l-15.68,9.15A6.68,6.68,0,0,1,3024.97,424.13Z"/><ellipse class="o" cx="9.74" cy="6.09" rx="9.74" ry="6.09" transform="translate(2985.052 390.623) rotate(-1.76)"/><g class="p"><line class="q" x2="24.86" y2="12.88" transform="translate(3010.45 398.94)"/><line class="q" x2="15.83" y2="8.21" transform="translate(3004.3 403.71)"/></g><path class="k" d="M2996.43,441.25l-48.81-25.3a1.409,1.409,0,0,1-.06-2.48l15.39-9a7.709,7.709,0,0,1,7.45-.19l48.1,24.93a1.55,1.55,0,0,1,.07,2.71l-15.68,9.14A6.712,6.712,0,0,1,2996.43,441.25Z"/><ellipse class="o" cx="9.74" cy="6.09" rx="9.74" ry="6.09" transform="translate(2956.522 407.751) rotate(-1.76)"/><g class="p"><line class="q" x2="24.86" y2="12.88" transform="translate(2981.91 416.06)"/><line class="q" x2="15.83" y2="8.2" transform="translate(2975.76 420.83)"/></g><g class="p"><path class="k" d="M2969.24,457.91l-48.81-25.29a1.419,1.419,0,0,1-.06-2.49l15.39-9a7.709,7.709,0,0,1,7.45-.19l48.1,24.93a1.55,1.55,0,0,1,.07,2.71l-15.68,9.15A6.68,6.68,0,0,1,2969.24,457.91Z"/><ellipse class="o" cx="9.74" cy="6.09" rx="9.74" ry="6.09" transform="translate(2929.326 424.409) rotate(-1.76)"/><g class="p"><line class="q" x2="24.86" y2="12.88" transform="translate(2954.72 432.72)"/><line class="q" x2="15.83" y2="8.2" transform="translate(2948.57 437.49)"/></g></g><g class="r"><path class="k" d="M2730.779,186.632l33.13-100.987a4.877,4.877,0,0,1,7.115-2.678l162.705,91.56a8.317,8.317,0,0,1,3.929,9.491l-27.806,99.217a4.876,4.876,0,0,1-7.036,2.9l-169.76-93.709A4.877,4.877,0,0,1,2730.779,186.632Z"/></g></g></g></svg>