<svg xmlns="http://www.w3.org/2000/svg" xmlns:xlink="http://www.w3.org/1999/xlink" width="737.18" height="534.231" viewBox="0 0 737.18 534.231"><defs><style>.a,.e,.l,.o{fill:none;}.b{opacity:0.05;isolation:isolate;}.c{clip-path:url(#a);}.d{fill:#44b758;}.e{stroke:#3a9947;stroke-width:2px;}.e,.l,.o,.p{stroke-miterlimit:10;}.f{fill:#cecece;}.g,.p{fill:#bcbcbc;}.h{fill:#3a9947;}.i{clip-path:url(#b);}.j{fill:#35873d;}.k{clip-path:url(#c);}.l{stroke:#2f7534;}.l,.o{stroke-linecap:round;stroke-width:8px;}.m{fill:#fff;}.n{clip-path:url(#d);}.o{stroke:#cecece;}.p{stroke:#ededed;stroke-width:4px;}.q{stroke:none;}</style><clipPath id="a"><rect class="a" width="377.407" height="178.061" transform="translate(467.533 522.47)"/></clipPath><clipPath id="b"><path class="a" d="M505.121,271.858a79.653,79.653,0,0,0-79.653,79.653V470.124H584.774V351.511A79.653,79.653,0,0,0,505.121,271.858Z"/></clipPath><clipPath id="c"><path class="a" d="M9.692,0H103a0,0,0,0,1,0,0V102.462a0,0,0,0,1,0,0H9.692A9.692,9.692,0,0,1,0,92.769V9.692A9.692,9.692,0,0,1,9.692,0Z" transform="translate(461.775 367.516)"/></clipPath><clipPath id="d"><path class="a" d="M9.692,0H103a0,0,0,0,1,0,0V102.462a0,0,0,0,1,0,0H9.692A9.692,9.692,0,0,1,0,92.769V9.692A9.692,9.692,0,0,1,9.692,0Z" transform="translate(481.775 367.516)"/></clipPath></defs><g transform="translate(-231.768 -166.3)"><path class="b" d="M513.409,310.918c53.649-22.89,102.4-104,201.7-104,131.3,0,193.1,49.107,193.1,143.9,0,79.7-87.8,101.4-7.1,162.3,0,0,57.3,20.553,65.524,59.583,8.594,40.788-6.576,81.217-48.26,81.217H344.548A111.778,111.778,0,0,1,233.322,552.624c-7.119-74.84,7.909-152.413,93.975-194.182C407.643,317.386,447.407,357.009,513.409,310.918Z"/><g class="c"><path class="d" d="M810.915,673.185c-4.768-1.088-10.016,2.131-14.527,8.141,3.721-13.1,2.521-24.215-3.908-27.627-6.73-3.572-17.232,2.325-26.291,13.735,3.835-6.892,7.926-14.467,11.146-20.97q1.332-2.2,2.581-4.539c11.136-20.98,12.24-42.192,2.467-47.38-9-4.778-24.789,5.575-35.817,23.653h0s-1.375,2.936-3.55,7.923c-1.325,2.728-2.481,5.446-3.463,8.12-8.166,19.575-20.943,53.282-24.108,79.356,0,0-1.055-59-10.022-77.465a12.457,12.457,0,0,0-2.263-3.352c-3.8-6.129-8.661-9.685-13.51-9.084-9.034,1.118-14.6,16.227-12.429,33.746a61.2,61.2,0,0,0,1.211,6.7,173.216,173.216,0,0,0,17.5,49.45v26.447h97.582s.223-.154.6-.421a8.344,8.344,0,0,0,1.519.509c9.011,2.057,19.736-11.262,23.957-29.749S819.925,675.242,810.915,673.185Z"/><ellipse class="d" cx="19.206" cy="44.56" rx="19.206" ry="44.56" transform="matrix(0.97, -0.242, 0.242, 0.97, 482.519, 675.017)"/><path class="d" d="M637.921,627.342c-7.559-3.137-18.564,5.159-27.532,19.549-.194-6.247-.686-12.744-1.51-19.4-5.431-43.862-23-77.788-39.244-75.777s-25.007,39.2-19.576,83.06a206.445,206.445,0,0,0,4.915,26.092c-8.625-12.75-18.737-19.851-25.822-16.911-9.8,4.066-10.09,25.789-.656,48.519s25.025,37.859,34.822,33.793c3.141-1.3,5.3-4.431,6.48-8.817,5.273,4.452,13.3,7.295,22.284,7.295,15.882,0,28.756-8.872,28.756-19.817a13.858,13.858,0,0,0-.1-1.595c6.491-6.091,12.982-15.77,17.84-27.474C648.011,653.131,647.717,631.408,637.921,627.342Z"/><path class="e" d="M502.874,685.187s11.834,24.264,10.4,39.033"/><path class="e" d="M533.274,661.451s25.512,23.208,25.512,57.494"/><path class="e" d="M576.192,615.56s12.66,51.693,5.8,97.583"/><path class="e" d="M624.192,661.451s-21.822,27.956-23.834,49.582"/><line class="e" x2="16.879" y2="82.286" transform="translate(691.709 651.429)"/><path class="e" d="M722.83,724.22s10.549-47.473,45.362-105.495"/><path class="e" d="M784.806,668.091s-22.154,35.246-22.154,50.854"/><line class="e" x1="4.747" y2="32.703" transform="translate(803.795 686.242)"/></g><rect class="f" width="33.231" height="230.407" transform="translate(635.512 470.124)"/><rect class="g" width="16.615" height="230.407" transform="translate(668.743 470.124)"/><path class="d" d="M775.248,470.124V351.511a79.652,79.652,0,0,0-79.653-79.653H505.121a79.653,79.653,0,0,0-79.653,79.653V470.124Z"/><path class="h" d="M505.121,271.858a79.653,79.653,0,0,0-79.653,79.653V470.124H584.774V351.511A79.653,79.653,0,0,0,505.121,271.858Z"/><g class="i"><path class="d" d="M441.884,470.124V351.511a79.653,79.653,0,0,1,79.653-79.653V250.845H394.7V470.124h47.18"/></g><path class="h" d="M515.121,625.9a79.653,79.653,0,0,1-79.653-79.653V470.124H594.774v76.121A79.653,79.653,0,0,1,515.121,625.9Z"/><path class="g" d="M505.121,625.9a79.653,79.653,0,0,1-79.653-79.653V470.124H584.774v76.121A79.653,79.653,0,0,1,505.121,625.9Z"/><path class="j" d="M9.692,0H103a0,0,0,0,1,0,0V102.462a0,0,0,0,1,0,0H9.692A9.692,9.692,0,0,1,0,92.769V9.692A9.692,9.692,0,0,1,9.692,0Z" transform="translate(461.775 367.516)"/><g class="k"><path class="l" d="M641.379,384.132l-95.341,45.41L450.7,384.132"/></g><path class="m" d="M9.692,0H103a0,0,0,0,1,0,0V102.462a0,0,0,0,1,0,0H9.692A9.692,9.692,0,0,1,0,92.769V9.692A9.692,9.692,0,0,1,9.692,0Z" transform="translate(481.775 367.516)"/><g class="n"><path class="o" d="M661.379,384.132l-95.341,45.41L470.7,384.132"/></g><path class="h" d="M650.765,166.3H692.7l-42.412,42.412Z"/><rect class="g" width="16.615" height="230.407" transform="translate(634.149 166.3)"/><circle class="g" cx="21.619" cy="21.619" r="21.619" transform="translate(620.838 375.088)"/><g class="p" transform="translate(631.71 385.96)"><circle class="q" cx="10.747" cy="10.747" r="10.747"/><circle class="a" cx="10.747" cy="10.747" r="8.747"/></g></g></svg>