<svg xmlns="http://www.w3.org/2000/svg" xmlns:xlink="http://www.w3.org/1999/xlink" width="880.574" height="478.926" viewBox="0 0 880.574 478.926"><defs><style>.a,.e,.k,.m{fill:none;}.b{opacity:0.05;}.c{fill:#44b758;}.d{clip-path:url(#a);}.e{stroke:#307237;}.e,.k,.m{stroke-miterlimit:10;stroke-width:2px;}.f{fill:#3a9947;}.g,.i{fill:#fff;}.h{fill:#474747;}.i{opacity:0.5;}.j{clip-path:url(#c);}.k{stroke:#333;}.l{clip-path:url(#d);}.m{stroke:#2c6630;}.n{fill:#333;}.o{fill:#8df49f;}</style><clipPath id="a"><path class="a" d="M1539.867,637.669h600.549l52.8-13.011-3.094-95.822s-14.611-26.987-107.542-44.248L1947.173,354.473s-26.987-30.543-105.335-30.543H1344.031c-15.97,0-19.276,14.862-21.2,30.5s-10.187,98.916-10.187,255.043c0,18.312,15.807,26.2,21.445,27.083l46.812,1.108" transform="translate(-1312.64 -323.93)"/></clipPath><clipPath id="c"><path class="a" d="M2042.12,645.363h108.342l52.787-13.011-3.094-95.822L2140.2,586.552H1589.94v23.2h434.466Z" transform="translate(-1589.94 -536.53)"/></clipPath><clipPath id="d"><path class="a" d="M2042.12,669.363h108.342l52.787-13.011-3.094-95.822L2140.2,610.552H1589.94v35.68h434.466Z" transform="translate(-1589.94 -560.53)"/></clipPath></defs><g transform="translate(-1122.71)"><g transform="translate(1169.493 0)"><path class="b" d="M1387.993,636.062s-109.3-229.29,113.44-306.78l21.589-5.3,56.383,8.771a81.278,81.278,0,0,0,74.02-27.276c34.7-40.094,102.549-100.236,198.255-100.236,126.548,0,186.111,56.383,186.111,138.692,0,76.816-84.622,97.73-6.843,156.426,0,0,81.635,28.24,81.635,135.7Z" transform="translate(-1361.18 -205.24)"/></g><g transform="translate(1122.71 114.394)"><path class="c" d="M2190.12,528.836s-14.611-26.987-107.542-44.248L1947.173,354.473s-26.987-30.543-105.335-30.543H1344.031c-15.97,0-19.276,14.862-21.2,30.5s-10.187,98.916-10.187,255.043c0,18.312,15.807,26.2,21.445,27.083l46.812,1.108h759.519l52.8-13.011Zm-125-34.389L1945.766,481.3a52.046,52.046,0,0,1-43.131-40.682l-9.7-46.07a4.009,4.009,0,0,1,4.443-4.819l73.326,9.561a8.086,8.086,0,0,1,4.906,2.545l91.33,88.757a2.265,2.265,0,0,1-1.822,3.855Z" transform="translate(-1312.64 -323.93)"/></g><g transform="translate(1122.71 114.394)"><g class="d"><path class="e" d="M1373.011,323.93c-15.97,0-19.276,14.862-21.2,30.5s-10.187,98.916-10.187,255.043" transform="translate(-1313.689 -323.93)"/><rect class="f" width="456.276" height="108.284" rx="17.8" transform="translate(90.829 61.992)"/><path class="e" d="M1483.86,107.05V436.489h214.274V110.105Z" transform="translate(-1135.781 -118.269)"/></g></g><g transform="translate(1122.71 114.394)"><g class="d"><path class="g" d="M1120.43,294.83h28.712a4.193,4.193,0,0,1,4.193,4.193v83h-32.9Z" transform="translate(-1122.628 -125.065)"/><path class="h" d="M2190.089,536.53l-59.958,50.022H1311.79v26.572h811.527l6.747,45.3s79.312,9.388,80.073,7.479,11.816-111.329,11.816-111.329Z" transform="translate(-1312.609 -331.624)"/><rect class="f" width="740.6" height="46.793" transform="translate(17.927 278.126)"/><path class="h" d="M1363.562,647.268c-5.629-.887-21.445-8.751-21.445-27.083q0-15.893.116-30.755H1300.49v71.958h109.874V648.377Z" transform="translate(-1312.2 -333.539)"/><path class="i" d="M1919.17,392.179l73.326,9.561a8.087,8.087,0,0,1,4.906,2.545l91.33,88.757a2.265,2.265,0,0,1-1.822,3.855L1967.553,483.75a52.046,52.046,0,0,1-43.13-40.663l-9.7-46.07a4.009,4.009,0,0,1,4.443-4.838Z" transform="translate(-1334.427 -326.399)"/><path class="g" d="M2210.91,544.791l-44.779-5.542a3.354,3.354,0,0,0-2.641,5.783l11.875,10.6a45.3,45.3,0,0,0,24.152,11.036l11.836,1.745Z" transform="translate(-1343.396 -331.722)"/></g></g><g transform="translate(1389.974 319.3)"><g class="j"><path class="e" d="M1373.011,323.93c-15.97,0-19.276,14.862-21.2,30.5s-10.187,98.916-10.187,255.043" transform="translate(-1580.953 -528.836)"/><rect class="f" width="456.276" height="108.284" rx="17.8" transform="translate(-176.435 -142.913)"/><path class="k" d="M1483.86,107.05V436.489h214.274V110.105Z" transform="translate(-1403.045 -323.174)"/></g><g class="l" transform="translate(0 23.131)"><path class="e" d="M1373.011,323.93c-15.97,0-19.276,14.862-21.2,30.5s-10.187,98.916-10.187,255.043" transform="translate(-1580.953 -551.967)"/><rect class="f" width="456.276" height="108.284" rx="17.8" transform="translate(-176.435 -166.045)"/><path class="m" d="M1483.86,107.05V436.489h214.274V110.105Z" transform="translate(-1403.045 -346.306)"/></g></g><g transform="translate(1709.091 301.826)"><rect class="n" width="32.596" height="6.101" rx="3.05"/></g><g transform="translate(1231.982 360.975)"><path class="n" d="M1560.327,646.928a67.156,67.156,0,1,0-134.312,0" transform="translate(-1426.015 -579.77)"/><circle class="h" cx="50.793" cy="50.793" r="50.793" transform="translate(16.37 16.365)"/><circle class="g" cx="32.288" cy="32.288" r="32.288" transform="translate(34.875 34.871)"/><circle class="h" cx="13.011" cy="13.011" r="13.011" transform="translate(54.152 54.147)"/></g><g transform="translate(1816.175 360.975)"><path class="n" d="M2166.457,646.928a67.156,67.156,0,1,0-134.312,0" transform="translate(-2032.145 -579.77)"/><circle class="h" cx="50.793" cy="50.793" r="50.793" transform="translate(16.37 16.365)"/><circle class="g" cx="32.288" cy="32.288" r="32.288" transform="translate(34.876 34.871)"/><circle class="h" cx="13.011" cy="13.011" r="13.011" transform="translate(54.152 54.147)"/></g><g transform="translate(1256.082 211.594)"><path class="g" d="M1454.788,454.255a9.388,9.388,0,0,1-3.768-7.431h9.262a3.126,3.126,0,0,0,5.108,2.544,1.976,1.976,0,0,0,.771-1.658,2.352,2.352,0,0,0-1.282-2.13,23.074,23.074,0,0,0-4.173-1.687,37.532,37.532,0,0,1-4.944-1.928,9.581,9.581,0,0,1-3.277-2.795,7.712,7.712,0,0,1-1.4-4.819,8.751,8.751,0,0,1,1.5-5.156,9.406,9.406,0,0,1,4.173-3.267,15.693,15.693,0,0,1,6.033-1.108c3.634,0,6.535.858,8.674,2.554a9.166,9.166,0,0,1,3.479,7.161h-9.445a2.776,2.776,0,0,0-.867-2.13,3.1,3.1,0,0,0-2.1-.713,2.246,2.246,0,0,0-1.6.578,2.13,2.13,0,0,0-.617,1.638,2,2,0,0,0,.684,1.532,6,6,0,0,0,1.706,1.108c.684.308,1.687.7,3.017,1.176a37.649,37.649,0,0,1,4.9,2.014,9.928,9.928,0,0,1,3.325,2.8,7.191,7.191,0,0,1,1.4,4.549,9.2,9.2,0,0,1-1.4,5.012,9.582,9.582,0,0,1-4.029,3.5,14.09,14.09,0,0,1-6.236,1.291,14.669,14.669,0,0,1-8.9-2.631Z" transform="translate(-1451.02 -424.781)"/><path class="g" d="M1503.991,425.29v6.92h-8.337v24.336h-8.674V432.21h-8.25v-6.92Z" transform="translate(-1452.023 -424.798)"/><path class="g" d="M1524.125,456.546l-6.207-11.566h-.964v11.566h-8.674V425.29h13.7a14.119,14.119,0,0,1,6.39,1.311,9.106,9.106,0,0,1,3.942,3.585,10,10,0,0,1,1.33,5.128,9.3,9.3,0,0,1-1.744,5.609,9.483,9.483,0,0,1-5.127,3.431l7.055,12.192Zm-7.142-17.464h4.308a3.72,3.72,0,0,0,2.66-.848,3.2,3.2,0,0,0,.887-2.438,3.123,3.123,0,0,0-.964-2.371,3.653,3.653,0,0,0-2.631-.867h-4.308Z" transform="translate(-1453.092 -424.798)"/><path class="g" d="M1545.59,454.783a15.421,15.421,0,0,1-5.841-5.725,16.983,16.983,0,0,1,0-16.539,15.209,15.209,0,0,1,5.841-5.7,16.982,16.982,0,0,1,16.153,0,15.016,15.016,0,0,1,5.783,5.7,17.117,17.117,0,0,1,0,16.539,15.208,15.208,0,0,1-5.783,5.725,16.809,16.809,0,0,1-16.134,0Zm13.32-8.183a9.811,9.811,0,0,0,0-11.681,7.508,7.508,0,0,0-10.535,0,9.966,9.966,0,0,0,0,11.7,7.508,7.508,0,0,0,10.535,0Z" transform="translate(-1454.154 -424.78)"/><path class="g" d="M1603.914,456.546h-8.674l-11.566-17.464v17.464H1575V425.29h8.674l11.566,17.7v-17.7h8.674Z" transform="translate(-1455.507 -424.798)"/><path class="g" d="M1630.02,435.6a5.024,5.024,0,0,0-2.053-1.928,6.746,6.746,0,0,0-3.084-.665,6.544,6.544,0,0,0-5.166,2.13,8.307,8.307,0,0,0-1.928,5.725q0,4.038,2.024,6.139a7.711,7.711,0,0,0,5.87,2.111,6.747,6.747,0,0,0,6.525-4.125h-8.742v-6.255h16.23v8.433a15.848,15.848,0,0,1-3,4.655,15.294,15.294,0,0,1-4.983,3.576,16.269,16.269,0,0,1-6.872,1.4,16.741,16.741,0,0,1-8.318-2.024,14.021,14.021,0,0,1-5.59-5.629,18.311,18.311,0,0,1,0-16.5,14.1,14.1,0,0,1,5.571-5.629A16.676,16.676,0,0,1,1624.8,425a16.018,16.018,0,0,1,9.753,2.833,12.028,12.028,0,0,1,4.819,7.711Z" transform="translate(-1456.737 -424.787)"/><path class="o" d="M1748.284,425.61v30.948h-6.207V436.434l-8.3,20.124h-4.694l-8.318-20.124v20.124h-6.207V425.61h7.046l9.85,23.016,9.84-23.016Z" transform="translate(-1460.558 -424.81)"/><path class="o" d="M1762.223,454.816a15.248,15.248,0,0,1-5.783-5.658,16.693,16.693,0,0,1,0-16.317,15.22,15.22,0,0,1,5.783-5.648,16.664,16.664,0,0,1,15.99,0,15.025,15.025,0,0,1,5.716,5.648,16.819,16.819,0,0,1,0,16.317,15,15,0,0,1-5.783,5.658,16.606,16.606,0,0,1-15.961,0Zm12.905-4.771a8.674,8.674,0,0,0,3.325-3.614,12.983,12.983,0,0,0,0-10.881,8.569,8.569,0,0,0-3.325-3.566,9.56,9.56,0,0,0-4.925-1.243,9.715,9.715,0,0,0-4.944,1.243,8.55,8.55,0,0,0-3.345,3.566,12.982,12.982,0,0,0,0,10.881,8.617,8.617,0,0,0,3.345,3.614,9.543,9.543,0,0,0,4.944,1.272,9.4,9.4,0,0,0,4.925-1.253Z" transform="translate(-1461.997 -424.793)"/><path class="o" d="M1819.724,425.61l-11.354,30.948h-7.537L1789.48,425.61h6.65l8.52,24.616,8.462-24.616Z" transform="translate(-1463.27 -424.81)"/><path class="o" d="M1830.937,430.62v7.759h10.438v4.954h-10.419v8.2h11.749v5.05H1824.74V425.57h17.965v5.05Z" transform="translate(-1464.546 -424.808)"/></g></g></svg>