<svg xmlns="http://www.w3.org/2000/svg" width="356.012" height="64.079" viewBox="0 0 356.012 64.079"><defs><style>.a{fill:#fff;}.b{fill:#44b758;}.c{fill:#8df49f;}</style></defs><g transform="translate(-24.209 -173.274)"><path class="a" d="M103.924,311.374h-2.347a64.719,64.719,0,0,0-14.084-21.768h0a37.3,37.3,0,0,0-5.272-4.484Q81.143,284.333,80,283.6a62.093,62.093,0,0,0-35.654-9.688.248.248,0,0,0-.035.492,109.4,109.4,0,0,1,10.828,2.291h-.012v0a77.538,77.538,0,0,0-18.826.7.247.247,0,0,0,.032.49c.8.038,1.783.1,2.9.2a14.124,14.124,0,0,0-2.212.9.166.166,0,0,0,.087.314,16.409,16.409,0,0,1,1.874-.036,42.849,42.849,0,0,0-8.787,2.624.247.247,0,0,0,.115.473c.564-.035,1.29-.075,2.127-.11-.383.227-.775.482-1.173.772a.166.166,0,0,0,.135.3,16.6,16.6,0,0,1,2.2-.373,18.606,18.606,0,0,0-7.086,5.64.247.247,0,0,0,.312.371c.47-.263,1.084-.582,1.822-.915-.268.285-.536.593-.8.927a.166.166,0,0,0,.209.25c.327-.182.76-.405,1.28-.637A19.752,19.752,0,0,0,25.49,294a.247.247,0,0,0,.355.311c.36-.221.848-.513,1.422-.834-3.129,7.491-3.273,15.786-2.929,21.013a5.629,5.629,0,0,0,5.617,5.26H56.538a.2.2,0,0,1-.2-.213,13.943,13.943,0,0,0-.65-5.215,14.4,14.4,0,0,0-2.763-4.915,14.849,14.849,0,0,0-4.575-3.582,15.026,15.026,0,0,0-3.084-1.153.2.2,0,0,1,.072-.391,15.689,15.689,0,0,1,3.351.725,16.184,16.184,0,0,1,5.489,3.147,16.622,16.622,0,0,1,3.966,5.15,17.041,17.041,0,0,1,1.708,6.231.2.2,0,0,1-.2.215h20.56a7.966,7.966,0,0,0-.265-3.113,8.294,8.294,0,0,0-1.513-2.891,8.657,8.657,0,0,0-2.619-2.168,8.863,8.863,0,0,0-1.865-.746.153.153,0,0,1,.055-.3,9.378,9.378,0,0,1,2.082.391,9.725,9.725,0,0,1,3.351,1.82,10.078,10.078,0,0,1,2.475,3.079,10.457,10.457,0,0,1,1.137,3.928H99.733c5.222,0,6.089-3.968,6.121-6.444A1.924,1.924,0,0,0,103.924,311.374Zm-13.936-.819a3.156,3.156,0,1,1,3.156-3.156A3.156,3.156,0,0,1,89.988,310.555Z" transform="translate(0 -82.777)"/><rect class="b" width="34.922" height="34.922" transform="matrix(0.994, -0.108, 0.108, 0.994, 38.8, 177.057)"/><g transform="translate(38.8 173.274)"><line class="b" x2="30.605" y2="24.591" transform="translate(3.947 6.955)"/><path class="c" d="M141.222,173.274,106.5,177.057l3.783,34.717L145,207.991Zm-3.717,8.447,2.051,18.822-10.436-8.385Zm-12.117,7.438-10.436-8.385,18.822-2.051Zm-3,3.732L114,203.327l-2.051-18.822Zm3.732,3,10.436,8.385-18.821,2.051Z" transform="translate(-106.505 -173.274)"/></g><path class="a" d="M139.884,340.37s-5.037-4.931-11.316-6a.247.247,0,0,0-.209.423,36.412,36.412,0,0,1,3.23,3.482,14.784,14.784,0,0,0-4.409-1.574.189.189,0,0,0-.16.323,25.8,25.8,0,0,1,3.009,3.373,22.229,22.229,0,0,0-9.851-4.176.237.237,0,0,0-.179.415,32.267,32.267,0,0,1,4.007,4.042,14.406,14.406,0,0,0-5.046-1.713.174.174,0,0,0-.133.305c.446.383,1.182,1.042,1.926,1.828a20.713,20.713,0,0,0-8.967-3.026.227.227,0,0,0-.148.407,32.788,32.788,0,0,1,3.492,3.044,13.61,13.61,0,0,0-4.636-1.386.167.167,0,0,0-.119.3,24.763,24.763,0,0,1,2.3,2.113,20.3,20.3,0,0,0-9.275-2.624.218.218,0,0,0-.117.4,33.031,33.031,0,0,1,2.941,2.193,12.518,12.518,0,0,0-3.843-.921.16.16,0,0,0-.105.287,23.388,23.388,0,0,1,2.374,2.072,23.805,23.805,0,0,0-2.522-1.059,14.386,14.386,0,0,0-3.617-3.078.181.181,0,0,0-.252.238c.225.456.563,1.178.9,2.015a15.624,15.624,0,0,0-4.146-.3.209.209,0,0,0-.086.391,22.5,22.5,0,0,1,5.626,4.312l.845-.349,3.38.7a16.636,16.636,0,0,0-.972-1.693l1.409-.581a8.917,8.917,0,0,1,.882,1.166l2.6-.684c.038.05.078.1.114.151l4.769-1.6a8.6,8.6,0,0,1,.662.969l4.191-.966-.052-.043,3.64-.969a9.209,9.209,0,0,1,.718,1.1l4.4-.885s-.2-.173-.547-.444l4.159-.854c.1.171.19.343.272.513l4.809-.725s-.1-.1-.281-.259Z" transform="translate(-58.087 -132.527)"/><g transform="translate(121.847 183.461)"><g transform="translate(0 0)"><path class="a" d="M545.824,234.828v28.787a1,1,0,0,1-1.01,1.01H538.5a.955.955,0,0,1-.737-.294,1.012,1.012,0,0,1-.274-.716V254.61a1,1,0,0,0-1.006-1.01h-8.636a.954.954,0,0,0-.734.294,1.018,1.018,0,0,0-.272.716v9.006a1.009,1.009,0,0,1-1.015,1.01h-6.3a.962.962,0,0,1-.74-.294,1.009,1.009,0,0,1-.275-.716V234.828a1.011,1.011,0,0,1,.275-.716.966.966,0,0,1,.74-.294h6.3a.983.983,0,0,1,.718.294.97.97,0,0,1,.3.713v9.939a1.012,1.012,0,0,0,.272.713.953.953,0,0,0,.734.293h8.636a1,1,0,0,0,1.006-1.007v-9.939a1.009,1.009,0,0,1,.274-.713.957.957,0,0,1,.737-.294h6.313a1,1,0,0,1,1.01,1.01Z" transform="translate(-518.509 -233.271)"/><path class="a" d="M713.421,242.572v1.768a1.007,1.007,0,0,0,1.01,1.01h11.406a1.006,1.006,0,0,1,1.01,1.01v5.808a1.007,1.007,0,0,1-1.01,1.01H714.432a1.005,1.005,0,0,0-1.01,1.01v1.6a1.006,1.006,0,0,0,1.01,1.01h13.089a1.005,1.005,0,0,1,1.01,1.01v5.808a1.006,1.006,0,0,1-1.01,1.01H706.1a1.006,1.006,0,0,1-1.01-1.01V234.828a1.006,1.006,0,0,1,1.01-1.01h21.422a1.006,1.006,0,0,1,1.01,1.01v5.724a1.007,1.007,0,0,1-1.01,1.01H714.432a1.005,1.005,0,0,0-1.01,1.009Z" transform="translate(-672.008 -233.271)"/><path class="a" d="M867.932,263.616V234.828a1.006,1.006,0,0,1,1.01-1.01h11.49a15.352,15.352,0,0,1,10.817,3.872A13.831,13.831,0,0,1,894.7,242.7a18.707,18.707,0,0,1,0,13.069,13.784,13.784,0,0,1-3.451,5.029,14.324,14.324,0,0,1-4.819,2.862,17.753,17.753,0,0,1-6,.968h-11.49a1.006,1.006,0,0,1-1.01-1.01Zm9.344-6.734h3.156a10.732,10.732,0,0,0,2.441-.294,5.552,5.552,0,0,0,2.273-1.116,6.009,6.009,0,0,0,1.663-2.315,11.944,11.944,0,0,0,0-7.786,5.916,5.916,0,0,0-1.684-2.315,5.766,5.766,0,0,0-2.273-1.115,10.5,10.5,0,0,0-2.42-.294h-3.156a1,1,0,0,0-1.01,1.01v13.216a1,1,0,0,0,1.01,1.01Z" transform="translate(-805.98 -233.271)"/><path class="a" d="M1062.215,262.828a15.853,15.853,0,0,1-6.313-1.263,16.855,16.855,0,0,1-5.156-3.409,15.961,15.961,0,0,1-3.493-5.051,15.551,15.551,0,0,1,0-12.374,16.224,16.224,0,0,1,3.493-5.072,16.662,16.662,0,0,1,5.156-3.43,15.852,15.852,0,0,1,6.313-1.263,16.419,16.419,0,0,1,8.06,1.894,15.424,15.424,0,0,1,5.577,5.219.985.985,0,0,1,.105.778,1,1,0,0,1-.442.653l-5.05,3.24a1.078,1.078,0,0,1-.758.148,1.153,1.153,0,0,1-.715-.4,11.208,11.208,0,0,0-2.925-2.567,7.374,7.374,0,0,0-3.851-.968,7.075,7.075,0,0,0-3.009.653,8.113,8.113,0,0,0-2.463,1.747,8.235,8.235,0,0,0-1.662,2.546,7.776,7.776,0,0,0,0,6.04,8.031,8.031,0,0,0,1.662,2.5,8.283,8.283,0,0,0,2.463,1.725,7.064,7.064,0,0,0,3.009.653,8.857,8.857,0,0,0,3.157-.589,5.153,5.153,0,0,0,2.483-1.936.547.547,0,0,0,.042-.611.637.637,0,0,0-.589-.273h-4.84a1.007,1.007,0,0,1-1.01-1.01V245.4a1.007,1.007,0,0,1,1.01-1.01h14.478a1.091,1.091,0,0,1,.737.274,1.062,1.062,0,0,1,.358.736,15.324,15.324,0,0,1,.084,1.747,18.516,18.516,0,0,1-.127,2.125,14.186,14.186,0,0,1-1.641,5.388,14.953,14.953,0,0,1-3.472,4.293,16.412,16.412,0,0,1-10.669,3.873Z" transform="translate(-952.451 -230.925)"/><path class="a" d="M1262.012,242.572v1.768a1.007,1.007,0,0,0,1.01,1.01h11.406a1.006,1.006,0,0,1,1.01,1.01v5.808a1.007,1.007,0,0,1-1.01,1.01h-11.406a1.005,1.005,0,0,0-1.01,1.01v1.6a1.006,1.006,0,0,0,1.01,1.01h13.089a1.005,1.005,0,0,1,1.01,1.01v5.808a1.006,1.006,0,0,1-1.01,1.01h-21.422a1.006,1.006,0,0,1-1.01-1.01V234.828a1.006,1.006,0,0,1,1.01-1.01h21.422a1.006,1.006,0,0,1,1.01,1.01v5.724a1.007,1.007,0,0,1-1.01,1.01h-13.089a1.006,1.006,0,0,0-1.01,1.009Z" transform="translate(-1123.335 -233.271)"/><path class="a" d="M1444.077,234.828v28.787a1,1,0,0,1-1.01,1.01h-6.313a.955.955,0,0,1-.737-.294,1.012,1.012,0,0,1-.274-.716V254.61a1,1,0,0,0-1.006-1.01H1426.1a.954.954,0,0,0-.734.294,1.019,1.019,0,0,0-.272.716v9.006a1.009,1.009,0,0,1-1.015,1.01h-6.3a.962.962,0,0,1-.74-.294,1.009,1.009,0,0,1-.275-.716V234.828a1.01,1.01,0,0,1,.275-.716.965.965,0,0,1,.74-.294h6.3a.982.982,0,0,1,.718.294.97.97,0,0,1,.3.713v9.939a1.013,1.013,0,0,0,.272.713.953.953,0,0,0,.734.293h8.636a1,1,0,0,0,1.006-1.007v-9.939a1.009,1.009,0,0,1,.274-.713.957.957,0,0,1,.737-.294h6.313a1,1,0,0,1,1.01,1.01Z" transform="translate(-1257.503 -233.271)"/><path class="a" d="M1598.355,246.682a15.347,15.347,0,0,1,1.263-6.187,16.454,16.454,0,0,1,3.409-5.072,16.019,16.019,0,0,1,5.051-3.43,15.79,15.79,0,0,1,12.374,0,16.151,16.151,0,0,1,8.5,8.5,15.79,15.79,0,0,1,0,12.373,16.15,16.15,0,0,1-8.5,8.5,15.788,15.788,0,0,1-12.374,0,16.018,16.018,0,0,1-5.051-3.43,16.455,16.455,0,0,1-3.409-5.072A15.346,15.346,0,0,1,1598.355,246.682Zm8.333,0a7.863,7.863,0,0,0,.589,3.03,8.165,8.165,0,0,0,1.62,2.525,7.9,7.9,0,0,0,2.42,1.747,6.976,6.976,0,0,0,5.892,0,8.173,8.173,0,0,0,2.441-1.747,8.007,8.007,0,0,0,1.642-2.525,8.035,8.035,0,0,0,0-6.039,7.722,7.722,0,0,0-1.642-2.525,8.388,8.388,0,0,0-2.441-1.725,6.976,6.976,0,0,0-5.892,0,8.1,8.1,0,0,0-2.42,1.725,8.094,8.094,0,0,0-2.21,5.535Z" transform="translate(-1406.9 -230.731)"/><path class="a" d="M1810.676,262.828a15.853,15.853,0,0,1-6.313-1.263,16.856,16.856,0,0,1-5.156-3.409,15.961,15.961,0,0,1-3.493-5.051,15.551,15.551,0,0,1,0-12.374,16.224,16.224,0,0,1,3.493-5.072,16.664,16.664,0,0,1,5.156-3.43,15.852,15.852,0,0,1,6.313-1.263,16.419,16.419,0,0,1,8.06,1.894,15.424,15.424,0,0,1,5.577,5.219.985.985,0,0,1,.105.778,1,1,0,0,1-.442.653l-5.05,3.24a1.078,1.078,0,0,1-.758.148,1.154,1.154,0,0,1-.716-.4,11.206,11.206,0,0,0-2.925-2.567,7.373,7.373,0,0,0-3.851-.968,7.075,7.075,0,0,0-3.009.653,8.112,8.112,0,0,0-2.463,1.747,8.24,8.24,0,0,0-1.662,2.546,7.779,7.779,0,0,0,0,6.04,8.036,8.036,0,0,0,1.662,2.5,8.282,8.282,0,0,0,2.463,1.725,7.064,7.064,0,0,0,3.009.653,8.857,8.857,0,0,0,3.157-.589,5.153,5.153,0,0,0,2.483-1.936.547.547,0,0,0,.042-.611.637.637,0,0,0-.589-.273h-4.84a1.007,1.007,0,0,1-1.01-1.01V245.4a1.007,1.007,0,0,1,1.01-1.01h14.478a1.091,1.091,0,0,1,.737.274,1.062,1.062,0,0,1,.358.736,15.324,15.324,0,0,1,.084,1.747,18.516,18.516,0,0,1-.127,2.125,14.19,14.19,0,0,1-1.641,5.388,14.962,14.962,0,0,1-3.472,4.293,16.412,16.412,0,0,1-10.67,3.873Z" transform="translate(-1568.211 -230.925)"/></g><g transform="translate(0 37.911)"><path class="a" d="M520.91,455.527v5.949h-2.4V446.009H524.5a5.362,5.362,0,0,1,3.773,1.281,4.455,4.455,0,0,1,1.393,3.446,4.819,4.819,0,0,1-.8,2.76,4.178,4.178,0,0,1-2.2,1.656l3.462,6.324h-2.765l-3.151-5.949Zm0-7.5v5.563h3.365a2.988,2.988,0,0,0,2.155-.729,2.713,2.713,0,0,0,.761-2.058,2.648,2.648,0,0,0-.793-2.036,3.081,3.081,0,0,0-2.186-.74Z" transform="translate(-518.509 -445.752)"/><path class="a" d="M629.078,459.4v2.079H619.26V446.009h9.818v2.069h-7.417V452.6h7.02v1.994h-7.02v4.8Z" transform="translate(-601.397 -445.752)"/><path class="a" d="M728.95,461.475h-2.2V450.093h-.075l-4.662,11.265h-1.779l-4.673-11.265h-.075v11.383H713.3V446.009h2.776l5.005,12.208h.086l4.995-12.208h2.787Z" transform="translate(-678.765 -445.752)"/><path class="a" d="M846.508,444.558a6.79,6.79,0,0,1,5.289,2.154,9.7,9.7,0,0,1,.005,11.678,7.6,7.6,0,0,1-10.59,0,9.714,9.714,0,0,1,0-11.678A6.787,6.787,0,0,1,846.508,444.558Zm0,2.111a4.277,4.277,0,0,0-3.5,1.586,7.779,7.779,0,0,0,0,8.585,4.641,4.641,0,0,0,6.988,0,7.78,7.78,0,0,0,0-8.585A4.266,4.266,0,0,0,846.508,446.669Z" transform="translate(-782.393 -444.558)"/><path class="a" d="M957.288,461.475h-2.626l-5.52-15.466h2.6l4.212,12.765h.064l4.223-12.765h2.562Z" transform="translate(-872.792 -445.752)"/><path class="a" d="M1056.944,461.475l-1.415-4.18h-5.9l-1.415,4.18h-2.5l5.584-15.466h2.594l5.584,15.466Zm-4.394-12.894-2.3,6.784h4.673l-2.3-6.784Z" transform="translate(-952.248 -445.752)"/><path class="a" d="M1167.322,459.4v2.079h-9.6V446.009h2.4V459.4Z" transform="translate(-1044.387 -445.752)"/><path class="a" d="M1244.383,455.973h2.369a2.494,2.494,0,0,0,1.147,1.844,4.412,4.412,0,0,0,2.551.7,4.048,4.048,0,0,0,2.406-.675,2.031,2.031,0,0,0,.948-1.715,1.846,1.846,0,0,0-.675-1.474,5.379,5.379,0,0,0-2.176-.938l-2-.482a6.526,6.526,0,0,1-3.146-1.533,3.577,3.577,0,0,1-1.013-2.637,3.966,3.966,0,0,1,1.57-3.248,6.3,6.3,0,0,1,4.057-1.254,6.142,6.142,0,0,1,3.987,1.249,4.141,4.141,0,0,1,1.6,3.253h-2.337a2.449,2.449,0,0,0-.991-1.811,4.295,4.295,0,0,0-4.555-.021,1.985,1.985,0,0,0-.874,1.672,1.63,1.63,0,0,0,.654,1.335,5.831,5.831,0,0,0,2.154.9l1.7.418a7.39,7.39,0,0,1,3.435,1.57,3.591,3.591,0,0,1,1.056,2.717,4.146,4.146,0,0,1-1.608,3.435,6.851,6.851,0,0,1-4.362,1.27,6.656,6.656,0,0,1-4.185-1.238A4.285,4.285,0,0,1,1244.383,455.973Z" transform="translate(-1115.687 -444.558)"/></g></g></g></svg>